<?xml version="1.0" encoding="iso-8859-1"?>
<!-- Generator: Adobe Illustrator 19.0.0, SVG Export Plug-In . SVG Version: 6.00 Build 0)  -->
<svg version="1.1" id="Layer_1" xmlns="http://www.w3.org/2000/svg" xmlns:xlink="http://www.w3.org/1999/xlink" x="0px" y="0px"
	 viewBox="0 0 512 512" style="enable-background:new 0 0 512 512;" xml:space="preserve">
<g>
	<g>
		<path d="M488.559,232.559c0.002-21.005-6.905-40.844-19.667-57.045c2.951-20.408-0.984-41.042-11.485-59.234
			c-10.503-18.192-26.402-31.918-45.558-39.567C404.2,57.56,390.474,41.657,372.28,31.154
			c-14.044-8.108-30.006-12.393-46.163-12.393c-4.371,0-8.732,0.308-13.052,0.923C296.859,6.914,277.014,0,256,0
			c-21.016,0-40.859,6.914-57.064,19.685c-4.321-0.614-8.683-0.923-13.055-0.923c-16.153,0-32.113,4.285-46.161,12.393
			c-18.191,10.503-31.916,26.404-39.564,45.559c-19.157,7.649-35.057,21.372-45.561,39.567
			c-10.501,18.192-14.437,38.824-11.482,59.234c-12.764,16.201-19.672,36.038-19.672,57.045c0,21.007,6.908,40.844,19.67,57.043
			c-2.951,20.411,0.984,41.043,11.487,59.237c10.503,18.192,26.405,31.918,45.558,39.565c5.978,14.971,15.679,27.936,28.311,37.909
			v63.179c0,12.429,10.077,22.506,22.506,22.506s22.506-10.077,22.506-22.506V445.51c4.101,0.56,8.243,0.848,12.401,0.848
			c4.372,0,8.735-0.309,13.056-0.924c16.206,12.774,36.05,19.688,57.064,19.688c21.015,0,40.859-6.914,57.063-19.688
			c4.323,0.615,8.684,0.926,13.056,0.926c0.002,0,0,0,0.002,0c4.156,0,8.299-0.29,12.401-0.849v43.984
			c0,12.429,10.077,22.506,22.506,22.506c12.429,0,22.506-10.077,22.506-22.506v-63.177c12.633-9.972,22.336-22.941,28.314-37.912
			c19.154-7.649,35.055-21.373,45.556-39.565c10.503-18.192,14.44-38.826,11.487-59.235
			C481.652,273.403,488.559,253.566,488.559,232.559z M379.587,266.125c-4.395,4.396-10.155,6.593-15.913,6.593
			c-5.76,0-11.52-2.197-15.913-6.593l-9.238-9.238v5.682c0,45.502-37.019,82.522-82.522,82.522
			c-45.502,0-82.522-37.019-82.522-82.522v-5.682l-9.238,9.238c-4.395,4.396-10.155,6.593-15.913,6.593
			c-5.76,0-11.52-2.197-15.913-6.593c-8.789-8.788-8.789-23.039,0-31.828l41.685-41.685c4.924-40.83,39.763-72.58,81.899-72.58
			s76.975,31.75,81.902,72.58l41.685,41.685C388.378,243.086,388.378,257.337,379.587,266.125z"/>
	</g>
</g>
<g>
</g>
<g>
</g>
<g>
</g>
<g>
</g>
<g>
</g>
<g>
</g>
<g>
</g>
<g>
</g>
<g>
</g>
<g>
</g>
<g>
</g>
<g>
</g>
<g>
</g>
<g>
</g>
<g>
</g>
</svg>