<?xml version="1.0" encoding="iso-8859-1"?>
<!-- Generator: Adobe Illustrator 19.0.0, SVG Export Plug-In . SVG Version: 6.00 Build 0)  -->
<svg version="1.1" id="Capa_1" xmlns="http://www.w3.org/2000/svg" xmlns:xlink="http://www.w3.org/1999/xlink" x="0px" y="0px"
	 viewBox="0 0 489.6 489.6" style="enable-background:new 0 0 489.6 489.6;" xml:space="preserve">
<g>
	<g>
		<g>
			<path d="M244.8,338.85c35,0,63.3-28.4,63.3-63.3c0-5.4,4.3-10.1,10.1-10.1c5.4,0,10.1,4.3,10.1,10.1c0,45.9-37.3,83.5-83.5,83.5
				c-5.4,0-10.1-4.3-10.1-10.1S239.4,338.85,244.8,338.85z"/>
			<path d="M0,97.55v348.9h50.1v43.1h79.7v-43.1h230.4v43.1h79.7v-43.1h49.7V97.55v-0.7H0V97.55z M244.8,163.65
				c61.8,0,111.9,50.1,111.9,111.9s-50.1,111.5-111.9,111.5s-111.9-50.1-111.9-111.5S183,163.65,244.8,163.65z"/>
			<path d="M0,0.05v76.9h489.6V0.05H0z M358.3,49.35h-26c-5.4,0-10.1-4.3-10.1-10.1s4.3-10.1,10.1-10.1h26c5.4,0,10.1,4.3,10.1,10.1
				S363.7,49.35,358.3,49.35z M439.5,49.35h-26c-5.4,0-10.1-4.3-10.1-10.1s4.3-10.1,10.1-10.1h26c5.4,0,10.1,4.3,10.1,10.1
				S444.9,49.35,439.5,49.35z"/>
		</g>
	</g>
</g>
<g>
</g>
<g>
</g>
<g>
</g>
<g>
</g>
<g>
</g>
<g>
</g>
<g>
</g>
<g>
</g>
<g>
</g>
<g>
</g>
<g>
</g>
<g>
</g>
<g>
</g>
<g>
</g>
<g>
</g>
</svg>